<?xml version="1.0" standalone="no"?>
<!DOCTYPE svg PUBLIC "-//W3C//DTD SVG 20010904//EN"
 "http://www.w3.org/TR/2001/REC-SVG-20010904/DTD/svg10.dtd">
<svg version="1.0" xmlns="http://www.w3.org/2000/svg"
 width="680.000000pt" height="165.000000pt" viewBox="0 0 680.000000 165.000000"
 preserveAspectRatio="xMidYMid meet">

<g transform="translate(0.000000,165.000000) scale(0.100000,-0.100000)"
fill="#000000" stroke="none">
<path d="M512 1206 c-122 -212 -225 -391 -228 -400 -5 -14 419 -761 450 -794
11 -11 54 58 241 380 125 216 228 398 228 404 0 9 -131 240 -363 639 -48 82
-92 151 -97 152 -5 2 -109 -170 -231 -381z m301 192 c36 -62 128 -223 206
-357 l141 -244 -207 -359 c-113 -197 -209 -358 -212 -358 -11 1 -412 710 -409
723 5 22 402 707 410 707 3 0 36 -51 71 -112z"/>
<path d="M657 1300 c-42 -76 -77 -144 -77 -151 0 -7 43 -91 96 -187 95 -172
95 -174 78 -199 -16 -26 -17 -26 -31 -7 -8 10 -50 85 -95 167 -44 81 -83 149
-87 151 -5 3 -147 -242 -159 -275 -2 -5 26 -9 62 -9 61 0 67 2 78 25 6 14 14
25 17 25 3 0 47 -76 97 -168 50 -92 95 -167 99 -167 5 0 44 64 88 143 l79 142
-96 174 c-53 95 -96 180 -96 187 0 8 7 22 14 32 17 22 4 41 136 -198 l105
-190 63 -3 c37 -2 62 1 62 7 0 11 -335 620 -348 633 -4 4 -42 -55 -85 -132z"/>
<path d="M417 707 c44 -81 319 -537 324 -537 6 0 309 546 309 556 0 2 -24 4
-54 4 l-54 0 -88 -157 c-48 -87 -95 -170 -104 -185 l-16 -27 -105 189 -104
189 -63 1 -62 0 17 -33z"/>
<path d="M1100 1578 c0 -7 75 -201 167 -430 l167 -418 76 0 76 0 164 398 c90
218 170 412 177 430 l14 33 -102 -3 -102 -3 -108 -280 -108 -280 -14 35 c-8
19 -56 146 -107 283 l-93 247 -103 0 c-76 0 -104 -3 -104 -12z"/>
<path d="M2086 1306 c-120 -51 -177 -133 -184 -268 -4 -76 -1 -92 20 -140 52
-112 142 -169 278 -176 69 -3 95 0 140 17 52 20 141 84 130 93 -3 3 -31 24
-63 47 l-58 42 -30 -25 c-47 -40 -103 -51 -155 -31 -41 15 -84 64 -84 94 0 8
61 11 211 11 l212 0 -6 73 c-10 128 -50 205 -134 254 -39 23 -61 28 -132 30
-74 3 -94 0 -145 -21z m183 -122 c19 -14 51 -69 51 -89 0 -3 -54 -5 -120 -5
-77 0 -120 4 -120 10 0 24 32 70 58 84 36 20 102 20 131 0z"/>
<path d="M2875 1313 c-16 -8 -42 -27 -57 -41 l-28 -26 0 38 0 37 -87 -3 -88
-3 -3 -292 -2 -293 94 0 95 0 3 196 3 196 28 24 c38 33 96 33 134 0 l28 -24 3
-196 4 -196 90 0 90 0 -4 223 c-3 220 -3 223 -31 279 -22 45 -36 61 -71 77
-52 26 -156 28 -201 4z"/>
<path d="M3490 1314 c-106 -39 -179 -119 -201 -222 -32 -154 46 -299 190 -353
79 -29 215 -25 286 11 111 54 168 150 167 281 0 118 -58 210 -167 267 -65 33
-204 41 -275 16z m197 -164 c48 -29 66 -72 61 -143 -4 -54 -8 -63 -41 -93 -33
-30 -43 -34 -95 -34 -80 0 -122 30 -142 102 -19 68 17 154 75 178 37 16 109
11 142 -10z"/>
<path d="M4305 1313 c-16 -8 -42 -27 -57 -41 l-28 -26 0 38 0 37 -87 -3 -88
-3 -3 -292 -2 -293 94 0 95 0 3 196 3 196 28 24 c32 27 92 32 121 11 26 -19
35 -86 35 -269 l1 -158 89 0 90 0 3 196 3 196 28 24 c30 25 83 32 117 14 32
-17 40 -67 40 -251 l0 -179 91 0 91 0 -4 223 c-4 252 -12 289 -83 343 -76 58
-225 41 -285 -32 l-25 -30 -30 35 c-16 19 -44 40 -62 47 -44 19 -141 17 -178
-3z"/>
<path d="M3848 616 c-61 -22 -89 -45 -109 -89 -23 -52 -24 -75 -3 -127 18 -44
51 -66 152 -101 69 -24 82 -35 82 -70 0 -54 -94 -72 -152 -29 l-30 22 -39 -38
c-21 -21 -39 -43 -39 -50 0 -7 23 -24 52 -38 102 -51 247 -28 300 46 29 41 36
124 14 166 -21 40 -53 62 -135 88 -97 31 -127 84 -65 113 34 15 73 14 108 -4
33 -18 35 -17 76 35 l31 39 -43 22 c-53 27 -149 35 -200 15z"/>
<path d="M5341 604 c-24 -31 -25 -37 -10 -67 16 -29 28 -37 60 -37 55 0 82 83
37 114 -33 23 -64 19 -87 -10z"/>
<path d="M1400 350 l0 -270 55 0 55 0 2 190 3 191 116 -188 115 -188 77 -3 77
-3 0 271 0 270 -55 0 -55 0 0 -187 c0 -133 -3 -184 -11 -176 -6 6 -59 89 -117
184 l-107 174 -78 3 -77 3 0 -271z"/>
<path d="M2110 451 c-36 -7 -100 -40 -100 -51 0 -4 12 -18 28 -33 l27 -26 30
19 c39 26 89 26 115 0 37 -37 26 -47 -52 -52 -91 -5 -141 -28 -163 -75 -55
-115 103 -215 210 -132 l25 20 0 -20 c0 -18 6 -21 50 -21 l50 0 0 135 c0 191
-21 227 -137 239 -26 3 -64 1 -83 -3z m120 -236 c0 -35 -37 -65 -81 -65 -40 0
-63 19 -57 47 5 24 45 43 96 43 38 0 42 -2 42 -25z"/>
<path d="M2583 449 c-18 -5 -39 -19 -48 -31 l-15 -22 0 27 c0 26 -2 27 -55 27
l-55 0 0 -185 0 -185 54 0 54 0 3 121 c4 113 6 122 28 140 28 23 54 24 75 3
13 -12 16 -40 16 -140 l0 -124 60 0 60 0 0 120 c0 107 2 122 20 140 24 24 49
25 76 6 17 -13 19 -29 22 -140 l4 -126 55 0 55 0 -4 142 c-2 122 -6 148 -24
178 -37 64 -133 75 -195 22 l-30 -25 -15 21 c-8 12 -31 26 -52 32 -43 11 -46
11 -89 -1z"/>
<path d="M3206 449 c-85 -21 -146 -98 -146 -184 0 -60 19 -103 63 -142 76 -67
192 -69 267 -6 l31 25 -41 30 -41 31 -23 -22 c-22 -21 -68 -27 -101 -15 -8 4
-22 19 -31 35 l-15 29 132 0 131 0 -4 63 c-7 122 -99 187 -222 156z m88 -90
c14 -11 26 -29 26 -40 0 -17 -8 -19 -69 -19 -39 0 -72 4 -75 8 -8 13 23 52 48
62 32 13 41 12 70 -11z"/>
<path d="M4296 449 c-85 -21 -146 -98 -146 -184 0 -60 19 -103 63 -142 76 -67
192 -69 267 -6 l31 25 -41 30 -41 31 -23 -22 c-22 -21 -68 -27 -101 -15 -8 4
-22 19 -31 35 l-15 29 132 0 131 0 -4 63 c-7 122 -99 187 -222 156z m88 -90
c14 -11 26 -29 26 -40 0 -17 -8 -19 -69 -19 -39 0 -72 4 -75 8 -8 13 23 52 48
62 32 13 41 12 70 -11z"/>
<path d="M4772 445 c-18 -8 -35 -21 -38 -30 -9 -24 -24 -18 -24 10 0 24 -3 25
-55 25 l-55 0 0 -185 0 -185 55 0 55 0 0 95 c0 147 31 195 118 181 l33 -5 -3
52 c-3 47 -5 52 -28 54 -14 2 -40 -4 -58 -12z"/>
<path d="M5656 449 c-113 -27 -177 -155 -132 -262 30 -74 127 -125 214 -113
44 6 102 31 102 44 0 5 -15 23 -34 41 -29 28 -37 31 -54 22 -76 -41 -159 46
-120 126 20 41 63 59 106 43 32 -11 36 -10 68 21 19 18 34 36 34 39 0 3 -12
13 -27 22 -37 21 -108 29 -157 17z"/>
<path d="M6026 449 c-85 -21 -146 -98 -146 -184 0 -60 19 -103 63 -142 76 -67
192 -69 267 -6 l31 25 -41 30 -41 31 -23 -22 c-22 -21 -68 -27 -101 -15 -8 4
-22 19 -31 35 l-15 29 132 0 131 0 -4 63 c-7 122 -99 187 -222 156z m88 -90
c14 -11 26 -29 26 -40 0 -17 -8 -19 -69 -19 -39 0 -72 4 -75 8 -8 13 23 52 48
62 32 13 41 12 70 -11z"/>
<path d="M4880 440 c0 -6 32 -89 72 -185 l72 -175 60 0 61 0 59 153 c33 83 65
167 73 185 l14 33 -58 -3 -58 -3 -28 -80 c-15 -44 -34 -100 -43 -124 l-17 -44
-46 124 -46 124 -57 3 c-37 2 -58 -1 -58 -8z"/>
<path d="M5330 265 l0 -185 55 0 55 0 0 185 0 185 -55 0 -55 0 0 -185z"/>
</g>
</svg>
